REM DIRINDEX 1\2,1\3
REM DIRNAME cjc143,folder01,folder02
TITLE ""
FILE "2000 phrasesTrack43.mp3" MP3
  TRACK 01 AUDIO
    TITLE "2:cjc143_1776"
    INDEX 01 00:00:00
  TRACK 02 AUDIO
    TITLE "0:"
    INDEX 01 00:00:58
  TRACK 03 AUDIO
    TITLE "2:cjc143_1777"
    INDEX 01 00:01:26
  TRACK 04 AUDIO
    TITLE "0:"
    INDEX 01 00:02:53
  TRACK 05 AUDIO
    TITLE "2:cjc143_1778"
    INDEX 01 00:03:27
  TRACK 06 AUDIO
    TITLE "0:"
    INDEX 01 00:04:58
  TRACK 07 AUDIO
    TITLE "2:cjc143_1779"
    INDEX 01 00:05:32
  TRACK 08 AUDIO
    TITLE "0:"
    INDEX 01 00:06:63
  TRACK 09 AUDIO
    TITLE "2:cjc143_1780"
    INDEX 01 00:07:31
  TRACK 10 AUDIO
    TITLE "0:"
    INDEX 01 00:08:58
  TRACK 11 AUDIO
    TITLE "2:cjc143_1781"
    INDEX 01 00:09:32
  TRACK 12 AUDIO
    TITLE "0:"
    INDEX 01 00:10:61
  TRACK 13 AUDIO
    TITLE "2:cjc143_1782"
    INDEX 01 00:11:35
  TRACK 14 AUDIO
    TITLE "0:"
    INDEX 01 00:12:67
  TRACK 15 AUDIO
    TITLE "2:cjc143_1783"
    INDEX 01 00:13:41
  TRACK 16 AUDIO
    TITLE "0:"
    INDEX 01 00:14:70
  TRACK 17 AUDIO
    TITLE "2:cjc143_1784"
    INDEX 01 00:15:40
  TRACK 18 AUDIO
    TITLE "0:"
    INDEX 01 00:16:73
  TRACK 19 AUDIO
    TITLE "2:cjc143_1785"
    INDEX 01 00:17:47
  TRACK 20 AUDIO
    TITLE "0:"
    INDEX 01 00:19:01
  TRACK 21 AUDIO
    TITLE "2:cjc143_1786"
    INDEX 01 00:19:50
  TRACK 22 AUDIO
    TITLE "0:"
    INDEX 01 00:21:15
  TRACK 23 AUDIO
    TITLE "2:cjc143_1787"
    INDEX 01 00:21:58
  TRACK 24 AUDIO
    TITLE "0:"
    INDEX 01 00:23:04
  TRACK 25 AUDIO
    TITLE "2:cjc143_1788"
    INDEX 01 00:23:55
  TRACK 26 AUDIO
    TITLE "0:"
    INDEX 01 00:25:11
  TRACK 27 AUDIO
    TITLE "2:cjc143_1789"
    INDEX 01 00:25:60
  TRACK 28 AUDIO
    TITLE "0:"
    INDEX 01 00:27:16
  TRACK 29 AUDIO
    TITLE "2:cjc143_1790"
    INDEX 01 00:27:63
  TRACK 30 AUDIO
    TITLE "0:"
    INDEX 01 00:29:25
  TRACK 31 AUDIO
    TITLE "2:cjc143_1791"
    INDEX 01 00:30:05
  TRACK 32 AUDIO
    TITLE "0:"
    INDEX 01 00:31:57
  TRACK 33 AUDIO
    TITLE "2:cjc143_1792"
    INDEX 01 00:32:31
  TRACK 34 AUDIO
    TITLE "0:"
    INDEX 01 00:33:58
  TRACK 35 AUDIO
    TITLE "2:cjc143_1793"
    INDEX 01 00:34:32
  TRACK 36 AUDIO
    TITLE "0:"
    INDEX 01 00:36:01
  TRACK 37 AUDIO
    TITLE "2:cjc143_1794"
    INDEX 01 00:36:44
  TRACK 38 AUDIO
    TITLE "0:"
    INDEX 01 00:38:35
  TRACK 39 AUDIO
    TITLE "2:cjc143_1795"
    INDEX 01 00:39:11
  TRACK 40 AUDIO
    TITLE "0:"
    INDEX 01 00:40:68
  TRACK 41 AUDIO
    TITLE "2:cjc143_1796"
    INDEX 01 00:41:38
  TRACK 42 AUDIO
    TITLE "0:"
    INDEX 01 00:43:27
  TRACK 43 AUDIO
    TITLE "2:cjc143_1797"
    INDEX 01 00:43:70
  TRACK 44 AUDIO
    TITLE "0:"
    INDEX 01 00:45:73
  TRACK 45 AUDIO
    TITLE "2:cjc143_1798"
    INDEX 01 00:46:41
  TRACK 46 AUDIO
    TITLE "0:"
    INDEX 01 00:48:28
  TRACK 47 AUDIO
    TITLE "2:cjc143_1799"
    INDEX 01 00:48:71
  TRACK 48 AUDIO
    TITLE "0:"
    INDEX 01 00:50:66
  TRACK 49 AUDIO
    TITLE "2:cjc143_1800"
    INDEX 01 00:51:42
  TRACK 50 AUDIO
    TITLE "0:"
    INDEX 01 00:53:29
  TRACK 51 AUDIO
    TITLE "2:cjc143_1801"
    INDEX 01 00:54:01
  TRACK 52 AUDIO
    TITLE "0:"
    INDEX 01 00:56:71
  TRACK 53 AUDIO
    TITLE "2:cjc143_1802"
    INDEX 01 00:57:48
  TRACK 54 AUDIO
    TITLE "0:"
    INDEX 01 00:59:51
  TRACK 55 AUDIO
    TITLE "2:cjc143_1803"
    INDEX 01 01:00:23
  TRACK 56 AUDIO
    TITLE "0:"
    INDEX 01 01:01:56
  TRACK 57 AUDIO
    TITLE "2:cjc143_1804"
    INDEX 01 01:02:40
  TRACK 58 AUDIO
    TITLE "0:"
    INDEX 01 01:04:00
  TRACK 59 AUDIO
    TITLE "2:cjc143_1805"
    INDEX 01 01:04:45
  TRACK 60 AUDIO
    TITLE "0:"
    INDEX 01 01:06:18
  TRACK 61 AUDIO
    TITLE "2:cjc143_1806"
    INDEX 01 01:07:02
  TRACK 62 AUDIO
    TITLE "0:"
    INDEX 01 01:08:27
  TRACK 63 AUDIO
    TITLE "2:cjc143_1807"
    INDEX 01 01:08:74
  TRACK 64 AUDIO
    TITLE "0:"
    INDEX 01 01:10:31
  TRACK 65 AUDIO
    TITLE "2:cjc143_1808"
    INDEX 01 01:11:00
  TRACK 66 AUDIO
    TITLE "0:"
    INDEX 01 01:12:24
  TRACK 67 AUDIO
    TITLE "2:cjc143_1809"
    INDEX 01 01:13:08
  TRACK 68 AUDIO
    TITLE "0:"
    INDEX 01 01:14:29
  TRACK 69 AUDIO
    TITLE "2:cjc143_1810"
    INDEX 01 01:15:05
  TRACK 70 AUDIO
    TITLE "0:"
    INDEX 01 01:17:02
  TRACK 71 AUDIO
    TITLE "2:cjc143_1811"
    INDEX 01 01:17:47
  TRACK 72 AUDIO
    TITLE "0:"
    INDEX 01 01:19:07
  TRACK 73 AUDIO
    TITLE "2:cjc143_1812"
    INDEX 01 01:19:54
  TRACK 74 AUDIO
    TITLE "0:"
    INDEX 01 01:20:73
  TRACK 75 AUDIO
    TITLE "2:cjc143_1813"
    INDEX 01 01:21:47
  TRACK 76 AUDIO
    TITLE "0:"
    INDEX 01 01:22:66
  TRACK 77 AUDIO
    TITLE "2:cjc143_1814"
    INDEX 01 01:23:38
  TRACK 78 AUDIO
    TITLE "0:"
    INDEX 01 01:24:57
  TRACK 79 AUDIO
    TITLE "2:cjc143_1815"
    INDEX 01 01:25:39
  TRACK 80 AUDIO
    TITLE "0:"
    INDEX 01 01:26:70
  TRACK 81 AUDIO
    TITLE "2:cjc143_1816"
    INDEX 01 01:27:48
  TRACK 82 AUDIO
    TITLE "0:"
    INDEX 01 01:28:67
